<svg width="19" height="19" viewBox="0 0 19 19" fill="none" xmlns="http://www.w3.org/2000/svg">
<path d="M16.4403 0.75H1.16031C0.972536 0.75 0.820312 0.902223 0.820312 1.09V5.89C0.820312 6.07778 0.972536 6.23 1.16031 6.23H16.4403C16.6281 6.23 16.7803 6.07778 16.7803 5.89V1.09C16.7803 0.902223 16.6281 0.75 16.4403 0.75Z" stroke="#1C1C1C" stroke-width="1.5" stroke-miterlimit="10"/>
<path d="M13.6905 3.48999H13.4805" stroke="#1C1C1C" stroke-width="1.5" stroke-miterlimit="10" stroke-linecap="round"/>
<path d="M11.1397 3.48999H10.9297" stroke="#1C1C1C" stroke-width="1.5" stroke-miterlimit="10" stroke-linecap="round"/>
<path d="M17.82 6.23999H3.63004C3.44226 6.23999 3.29004 6.39221 3.29004 6.57999V11.38C3.29004 11.5678 3.44226 11.72 3.63004 11.72H17.82C18.0078 11.72 18.16 11.5678 18.16 11.38V6.57999C18.16 6.39221 18.0078 6.23999 17.82 6.23999Z" stroke="#1C1C1C" stroke-width="1.5" stroke-miterlimit="10"/>
<path d="M15.1095 8.97998H11.2695" stroke="#1C1C1C" stroke-width="1.5" stroke-miterlimit="10" stroke-linecap="round"/>
<path d="M16.43 11.8101H1.09C0.902223 11.8101 0.75 11.9623 0.75 12.1501V16.9501C0.75 17.1378 0.902223 17.2901 1.09 17.2901H16.43C16.6178 17.2901 16.77 17.1378 16.77 16.9501V12.1501C16.77 11.9623 16.6178 11.8101 16.43 11.8101Z" stroke="#1C1C1C" stroke-width="1.5" stroke-miterlimit="10"/>
<path d="M12.6804 14.55H12.1104" stroke="#1C1C1C" stroke-width="1.5" stroke-miterlimit="10" stroke-linecap="round"/>
</svg>
