<?xml version="1.0" encoding="utf-8"?>
<!-- Generator: Adobe Illustrator 18.1.0, SVG Export Plug-In . SVG Version: 6.00 Build 0)  -->
<!DOCTYPE svg PUBLIC "-//W3C//DTD SVG 1.1//EN" "http://www.w3.org/Graphics/SVG/1.1/DTD/svg11.dtd">
<svg version="1.1" id="Layer_1" xmlns="http://www.w3.org/2000/svg" xmlns:xlink="http://www.w3.org/1999/xlink" x="0px" y="0px"
	 width="94px" height="16px" viewBox="0 0 94 16" style="enable-background:new 0 0 94 16;" xml:space="preserve">
<g>
	<rect x="14.417" y="5.088" style="fill:#263A6F;" width="2.401" height="10.733"/>
	<g>
		<path style="fill:#263A6F;" d="M32.521,6.016c-0.336-0.379-0.782-0.675-1.326-0.88c-0.532-0.2-1.187-0.302-1.947-0.302
			c-0.653,0-1.268,0.051-1.827,0.151c-0.574,0.102-0.98,0.208-1.239,0.323l-0.202,0.09l0.298,2.094l0.348-0.143
			c0.202-0.083,0.521-0.166,0.948-0.247c0.43-0.081,0.94-0.122,1.518-0.122c0.422,0,0.765,0.059,1.017,0.177
			c0.249,0.116,0.44,0.266,0.581,0.456c0.143,0.193,0.244,0.419,0.301,0.669c0.06,0.272,0.09,0.55,0.09,0.826v0.146
			c-0.114-0.022-0.242-0.047-0.386-0.073C30.513,9.148,30.32,9.12,30.116,9.1c-0.834-0.083-1.584-0.009-2.298,0.152
			c-0.55,0.124-1.041,0.321-1.458,0.585c-0.43,0.272-0.775,0.636-1.025,1.08c-0.252,0.446-0.379,0.979-0.379,1.587
			c0,0.626,0.108,1.174,0.32,1.627c0.215,0.46,0.523,0.836,0.914,1.118c0.38,0.275,0.835,0.477,1.351,0.603
			c0.501,0.123,1.057,0.184,1.65,0.184c0.407,0,0.825-0.017,1.243-0.05c0.413-0.033,0.797-0.068,1.15-0.108
			c0.358-0.04,0.678-0.083,0.962-0.128l0.9-0.149V9.01c0-0.594-0.07-1.149-0.206-1.648C33.097,6.847,32.856,6.394,32.521,6.016z
			 M31.083,11.263v2.581c-0.16,0.025-0.345,0.044-0.553,0.056c-0.327,0.019-0.702,0.029-1.125,0.029
			c-0.658,0-1.178-0.114-1.546-0.338c-0.326-0.198-0.484-0.56-0.484-1.107c0-0.281,0.064-0.506,0.19-0.667
			c0.141-0.178,0.32-0.321,0.532-0.425c0.225-0.109,0.476-0.182,0.749-0.216c0.289-0.037,0.569-0.056,0.83-0.056
			c0.399,0,0.741,0.021,1.018,0.064C30.869,11.21,30.993,11.238,31.083,11.263z"/>
	</g>
	<path style="fill:#F68522;" d="M55.951,6.988c-0.41-0.453-0.904-0.807-1.469-1.052c-0.567-0.246-1.194-0.37-1.862-0.37
		c-0.67,0-1.296,0.124-1.863,0.37c-0.566,0.245-1.061,0.599-1.469,1.052c-0.409,0.454-0.732,1.008-0.96,1.646
		c-0.228,0.64-0.344,1.358-0.344,2.133c0,0.788,0.116,1.509,0.344,2.143c0.227,0.632,0.55,1.182,0.96,1.636
		c0.409,0.452,0.903,0.806,1.469,1.052c0.567,0.245,1.194,0.37,1.863,0.37c0.668,0,1.294-0.125,1.862-0.37
		c0.565-0.245,1.06-0.599,1.469-1.052c0.41-0.454,0.732-1.004,0.959-1.636c0.228-0.634,0.344-1.355,0.344-2.143
		c0-0.775-0.116-1.493-0.344-2.133C56.682,7.995,56.36,7.442,55.951,6.988z M54.818,13.567c-0.537,0.7-1.277,1.054-2.198,1.054
		c-0.923,0-1.662-0.355-2.199-1.055c-0.529-0.689-0.797-1.631-0.797-2.799s0.268-2.11,0.797-2.8
		c0.537-0.699,1.277-1.054,2.199-1.054c0.921,0,1.661,0.355,2.198,1.054c0.529,0.69,0.797,1.632,0.797,2.8
		S55.346,12.877,54.818,13.567z"/>
	<path style="fill:#F68522;" d="M63.322,14.562c-0.211,0.014-0.415,0.02-0.613,0.02c-0.962,0-1.66-0.287-2.073-0.853
		c-0.405-0.553-0.61-1.471-0.61-2.729V5.819h-1.561v5.572c0,0.676,0.072,1.299,0.211,1.853c0.138,0.546,0.366,1.025,0.679,1.426
		c0.31,0.396,0.727,0.71,1.239,0.927c0.516,0.22,1.162,0.331,1.921,0.331c0.886,0,1.677-0.058,2.35-0.174
		c0.627-0.108,1.146-0.211,1.543-0.306V5.819h-1.561v8.527l-0.079,0.032c-0.075,0.03-0.19,0.055-0.352,0.076
		c-0.151,0.02-0.318,0.039-0.501,0.059C63.728,14.532,63.531,14.549,63.322,14.562z"/>
	<path style="fill:#F68522;" d="M73.564,5.807c-0.161-0.032-0.34-0.064-0.533-0.096c-0.193-0.032-0.388-0.058-0.587-0.077
		c-0.196-0.019-0.372-0.029-0.524-0.029c-0.782,0-1.494,0.069-2.12,0.203c-0.588,0.126-1.092,0.262-1.499,0.404v9.502h1.561v-8.5
		l0.096-0.024c0.105-0.027,0.323-0.075,0.657-0.147c0.34-0.073,0.687-0.11,1.032-0.11c0.526,0,0.966,0.037,1.305,0.11
		c0.249,0.054,0.443,0.102,0.589,0.145l0.262-1.326C73.738,5.844,73.658,5.826,73.564,5.807z"/>
	<path style="fill:#F68522;" d="M80.203,14.462c-0.397,0.092-0.846,0.14-1.337,0.14c-0.612,0-1.141-0.092-1.571-0.273
		c-0.433-0.182-0.794-0.448-1.073-0.788c-0.277-0.338-0.482-0.747-0.61-1.218c-0.126-0.464-0.19-0.98-0.19-1.536
		c0-1.248,0.282-2.214,0.84-2.873c0.563-0.664,1.38-1.001,2.429-1.001c0.411,0,0.804,0.04,1.169,0.119
		c0.306,0.068,0.588,0.154,0.835,0.26l0.342-1.288c-0.377-0.145-0.771-0.253-1.177-0.322c-0.445-0.077-0.898-0.115-1.345-0.115
		c-0.72,0-1.382,0.13-1.968,0.388c-0.586,0.259-1.087,0.622-1.488,1.08c-0.404,0.461-0.721,1.014-0.942,1.646
		c-0.222,0.635-0.334,1.343-0.334,2.105c0,0.764,0.104,1.47,0.306,2.098c0.201,0.624,0.511,1.17,0.919,1.623
		c0.409,0.451,0.918,0.809,1.517,1.061c0.789,0.332,1.763,0.465,2.902,0.332c0.273-0.032,0.536-0.071,0.782-0.116
		c0.244-0.045,0.462-0.096,0.65-0.153c0.141-0.042,0.257-0.086,0.346-0.131l-0.213-1.275C80.783,14.309,80.518,14.388,80.203,14.462
		z"/>
	<path style="fill:#F68522;" d="M85.873,5.566c-0.567,0-1.129,0.108-1.671,0.322c-0.539,0.214-1.024,0.539-1.439,0.966
		c-0.415,0.429-0.754,0.976-1.007,1.627c-0.253,0.652-0.382,1.427-0.382,2.305c0,0.751,0.101,1.451,0.297,2.079
		c0.196,0.624,0.498,1.17,0.901,1.623c0.402,0.451,0.921,0.811,1.544,1.069c0.626,0.259,1.381,0.391,2.245,0.391
		c0.688,0,1.312-0.065,1.854-0.192c0.475-0.112,0.828-0.219,1.049-0.32l-0.212-1.27c-0.216,0.088-0.499,0.174-0.855,0.264
		c-0.443,0.113-0.996,0.17-1.642,0.17c-1.162,0-2.032-0.288-2.588-0.858c-0.553-0.565-0.873-1.399-0.954-2.48l-0.01-0.136h6.969
		c0.005-0.068,0.008-0.139,0.008-0.215V10.61c0-1.704-0.357-2.985-1.062-3.81C88.218,5.981,87.194,5.566,85.873,5.566z M88.34,9.918
		h-5.302l0.016-0.142c0.04-0.361,0.125-0.719,0.251-1.063c0.126-0.35,0.308-0.665,0.539-0.937c0.23-0.271,0.516-0.496,0.849-0.666
		c0.335-0.171,0.725-0.257,1.16-0.257c0.779,0,1.401,0.282,1.846,0.838c0.439,0.548,0.656,1.255,0.643,2.101L88.34,9.918z"/>
	<path style="fill:#263A6F;" d="M24.038,13.569c-0.091,0.034-0.19,0.072-0.306,0.116c-0.297,0.11-0.706,0.166-1.215,0.166
		c-0.279,0-0.524-0.035-0.727-0.102c-0.183-0.061-0.331-0.161-0.452-0.308c-0.126-0.153-0.224-0.376-0.292-0.662
		c-0.072-0.308-0.109-0.709-0.109-1.192V7.196h3.845V5.088h-3.845V2.843l-2.401,0.398v8.365c0,0.696,0.058,1.317,0.173,1.847
		c0.118,0.554,0.331,1.03,0.63,1.416c0.305,0.391,0.711,0.689,1.208,0.883c0.481,0.188,1.092,0.283,1.814,0.283
		c0.611,0,1.165-0.073,1.646-0.217c0.439-0.131,0.747-0.241,0.95-0.335c-0.237-0.273-0.441-0.578-0.601-0.921
		C24.212,14.258,24.108,13.925,24.038,13.569z"/>
	<path style="fill:#263A6F;" d="M12.063,1.87l-0.127,0.021c-0.314,0.954-0.461,1.719-0.802,2.714
		c-0.342,0.995-0.687,1.976-1.035,2.944c-0.348,0.968-0.693,1.898-1.035,2.79c-0.342,0.893-0.669,1.714-0.984,2.463
		c-0.328-0.75-0.663-1.574-1.004-2.473c-0.342-0.9-0.683-1.83-1.024-2.791C5.71,6.578,5.368,5.6,5.027,4.605
		c-0.285-0.83-1.061-2.925-1.5-4.15L0.5-0.047c0.882,2.535,2.456,6.743,3.328,8.965c0.948,2.412,1.933,4.722,2.956,6.929h2.472
		c1.026-2.208,2.011-4.517,2.954-6.929c0.83-2.122,1.618-4.458,2.364-6.631L12.063,1.87z"/>
	<polygon style="fill:#263A6F;" points="34.732,0.555 34.732,15.822 37.132,15.822 37.132,0.157 	"/>
	<g>
		<path style="fill:#F68522;" d="M91.433,5.57v0.212h-0.549v1.533H90.64V5.782h-0.548V5.57H91.433z"/>
		<path style="fill:#F68522;" d="M92.473,7.073c-0.017-0.04-0.039-0.091-0.067-0.154c-0.028-0.062-0.058-0.129-0.09-0.201
			c-0.032-0.072-0.066-0.147-0.102-0.223c-0.036-0.076-0.07-0.148-0.102-0.216c-0.032-0.068-0.062-0.129-0.09-0.182
			c-0.027-0.054-0.05-0.095-0.067-0.124c-0.018,0.198-0.034,0.413-0.045,0.643C91.9,6.847,91.89,7.08,91.882,7.315h-0.239
			c0.007-0.151,0.015-0.303,0.023-0.457c0.008-0.154,0.018-0.305,0.029-0.453c0.011-0.149,0.023-0.293,0.035-0.434
			c0.013-0.141,0.026-0.274,0.041-0.4h0.214c0.046,0.074,0.094,0.161,0.146,0.262c0.052,0.101,0.104,0.206,0.156,0.316
			c0.052,0.11,0.103,0.22,0.151,0.33c0.049,0.11,0.093,0.21,0.133,0.301c0.04-0.091,0.085-0.191,0.133-0.301
			c0.049-0.11,0.099-0.22,0.151-0.33c0.053-0.11,0.104-0.215,0.156-0.316c0.052-0.1,0.101-0.188,0.146-0.262h0.214
			c0.057,0.562,0.1,1.144,0.128,1.744h-0.239c-0.009-0.235-0.018-0.468-0.03-0.699c-0.012-0.231-0.027-0.445-0.046-0.643
			c-0.017,0.029-0.039,0.07-0.067,0.124c-0.028,0.054-0.057,0.114-0.089,0.182c-0.032,0.068-0.066,0.14-0.102,0.216
			c-0.036,0.076-0.07,0.151-0.102,0.223c-0.032,0.072-0.061,0.139-0.089,0.201c-0.027,0.062-0.05,0.113-0.066,0.154H92.473z"/>
	</g>
	<path style="fill:#F68522;" d="M46.823,10.703c-0.211-0.435-0.499-0.811-0.857-1.116c-0.353-0.3-0.772-0.564-1.247-0.786
		c-0.467-0.217-0.969-0.438-1.492-0.655c-0.435-0.179-0.841-0.353-1.206-0.517c-0.361-0.161-0.679-0.344-0.945-0.542
		c-0.259-0.192-0.463-0.424-0.608-0.689c-0.142-0.261-0.215-0.589-0.215-0.975c0-0.375,0.069-0.697,0.206-0.959
		c0.137-0.262,0.327-0.483,0.567-0.656c0.24-0.175,0.532-0.303,0.866-0.382c0.342-0.08,0.723-0.121,1.132-0.121
		c0.599,0,1.165,0.076,1.682,0.225c0.514,0.148,0.957,0.349,1.317,0.597l0.128,0.088l0.56-1.331l-0.084-0.059
		c-0.173-0.119-0.391-0.233-0.648-0.339c-0.248-0.102-0.531-0.197-0.839-0.283c-0.304-0.084-0.635-0.153-0.985-0.205
		c-0.353-0.052-0.714-0.078-1.074-0.078c-1.366,0-2.451,0.306-3.225,0.909c-0.783,0.611-1.181,1.516-1.181,2.69
		c0,0.515,0.084,0.971,0.25,1.355c0.166,0.386,0.412,0.732,0.73,1.031c0.314,0.294,0.698,0.562,1.14,0.794
		c0.436,0.23,0.938,0.457,1.488,0.673c0.435,0.179,0.851,0.347,1.249,0.506c0.385,0.154,0.731,0.342,1.028,0.56
		c0.291,0.212,0.527,0.477,0.704,0.787c0.174,0.306,0.262,0.696,0.262,1.159c0,0.808-0.264,1.374-0.807,1.732
		c-0.552,0.362-1.342,0.546-2.349,0.546c-0.439,0-0.845-0.032-1.207-0.094c-0.36-0.062-0.69-0.141-0.98-0.235
		c-0.291-0.095-0.544-0.193-0.753-0.292c-0.219-0.103-0.385-0.189-0.507-0.262l-0.13-0.078l-0.512,1.373l0.09,0.054
		c0.132,0.079,0.317,0.172,0.551,0.276c0.235,0.105,0.516,0.204,0.861,0.303c0.336,0.097,0.723,0.179,1.148,0.243
		c0.426,0.065,0.904,0.098,1.42,0.098c1.453,0,2.624-0.312,3.48-0.926c0.869-0.624,1.31-1.569,1.31-2.809
		C47.143,11.683,47.035,11.141,46.823,10.703z"/>
</g>
</svg>
