<svg width="16" height="16" viewBox="0 0 16 16" fill="none" xmlns="http://www.w3.org/2000/svg">
<path fill-rule="evenodd" clip-rule="evenodd" d="M6.5 11C4.019 11 2 8.981 2 6.5C2 4.019 4.019 2 6.5 2C8.981 2 11 4.019 11 6.5C11 8.981 8.981 11 6.5 11ZM15.708 14.294L11.744 10.33C12.53 9.255 13 7.934 13 6.5C13 2.91 10.09 0 6.5 0C2.91 0 0 2.91 0 6.5C0 10.09 2.91 13 6.5 13C7.934 13 9.255 12.53 10.33 11.744L14.294 15.708C14.684 16.098 15.319 16.098 15.708 15.708C16.098 15.319 16.098 14.683 15.708 14.294Z" fill="#1C1C1C"/>
</svg>
