<svg width="143" height="25" viewBox="0 0 143 25" fill="none" xmlns="http://www.w3.org/2000/svg">
<g clip-path="url(#clip0_118_137)">
<path d="M25.3207 7.978H21.593V24.6475H25.3207V7.978Z" fill="#002244"/>
<path d="M49.6879 9.41368C49.164 8.82048 48.4769 8.36484 47.6266 8.04676C46.802 7.73727 45.7799 7.58252 44.6032 7.58252C43.5897 7.58252 42.6363 7.65989 41.7688 7.81464C40.8755 7.96938 40.2485 8.14132 39.8448 8.31326L39.5356 8.45081L39.9994 11.7005L40.5405 11.4769C40.8583 11.348 41.3479 11.219 42.0093 11.0901C42.6792 10.9611 43.4694 10.901 44.3627 10.901C45.0155 10.901 45.548 10.9955 45.9431 11.1761C46.3296 11.3566 46.6216 11.5887 46.845 11.881C47.0683 12.1819 47.2229 12.5344 47.3088 12.9212C47.4032 13.3425 47.4462 13.7723 47.4462 14.2022V14.4257C47.2658 14.3913 47.0683 14.3569 46.845 14.314C46.5615 14.2624 46.2609 14.2194 45.9431 14.185C44.6461 14.056 43.4866 14.1678 42.3786 14.4171C41.5283 14.6062 40.7639 14.9157 40.1197 15.3284C39.4497 15.7496 38.9172 16.317 38.5307 17.0048C38.1442 17.7012 37.938 18.5265 37.938 19.4721C37.938 20.4178 38.1012 21.2947 38.4362 21.9996C38.7712 22.7132 39.2436 23.2978 39.8534 23.7362C40.4461 24.1661 41.1504 24.4756 41.9492 24.6733C42.7308 24.8624 43.5897 24.957 44.5087 24.957C45.1443 24.957 45.7885 24.9312 46.4413 24.8796C47.0854 24.8281 47.6781 24.7765 48.2278 24.7077C48.7861 24.6475 49.2757 24.5787 49.7223 24.51L51.1223 24.2778V14.0388C51.1223 13.119 51.0107 12.2507 50.8045 11.4769C50.5898 10.6774 50.2119 9.97248 49.6879 9.38788V9.41368ZM47.4548 17.5636V21.5698C47.2057 21.6042 46.9223 21.6386 46.5959 21.6558C46.0891 21.6816 45.5051 21.6988 44.8523 21.6988C43.8302 21.6988 43.0228 21.5182 42.4559 21.1743C41.9492 20.8648 41.7087 20.306 41.7087 19.4549C41.7087 19.0165 41.8117 18.6726 42.0007 18.4147C42.2154 18.1396 42.4989 17.9161 42.8253 17.7527C43.1774 17.5808 43.5639 17.469 43.9848 17.4175C44.4314 17.3573 44.8695 17.3315 45.2731 17.3315C45.8916 17.3315 46.4241 17.3659 46.8535 17.4347C47.1198 17.4776 47.3174 17.5206 47.4548 17.555V17.5636Z" fill="#002244"/>
<path d="M86.0457 10.9268C85.4101 10.2218 84.6456 9.67161 83.7695 9.29334C82.8934 8.91508 81.9143 8.71735 80.8836 8.71735C79.8529 8.71735 78.8737 8.90648 77.9891 9.29334C77.113 9.67161 76.34 10.2218 75.713 10.9268C75.0774 11.6317 74.5792 12.4914 74.227 13.4801C73.8749 14.4773 73.6945 15.5863 73.6945 16.7899C73.6945 17.9935 73.8749 19.1369 74.227 20.1169C74.5792 21.097 75.0774 21.9481 75.713 22.6616C76.3486 23.3666 77.113 23.9168 77.9891 24.2951C78.8652 24.6733 79.8443 24.8711 80.8836 24.8711C81.9229 24.8711 82.8934 24.6733 83.7695 24.2951C84.6456 23.9168 85.4101 23.3666 86.0457 22.6616C86.6812 21.9567 87.1794 21.1056 87.5316 20.1169C87.8837 19.1283 88.0641 18.0107 88.0641 16.7899C88.0641 15.5691 87.8837 14.4687 87.5316 13.4801C87.1794 12.4914 86.6812 11.6317 86.0457 10.9268ZM84.2849 21.1486C83.4517 22.2318 82.3008 22.782 80.875 22.782C79.4492 22.782 78.2983 22.2318 77.4651 21.14C76.6406 20.0739 76.2283 18.6039 76.2283 16.7899C76.2283 14.9759 76.6406 13.5145 77.4651 12.4398C78.2983 11.3566 79.4492 10.8064 80.875 10.8064C82.3008 10.8064 83.4517 11.3566 84.2849 12.4398C85.1094 13.5145 85.5217 14.9759 85.5217 16.7899C85.5217 18.6039 85.1094 20.0654 84.2849 21.14V21.1486Z" fill="#002244"/>
<path d="M97.4864 22.6874C97.16 22.7046 96.8422 22.7218 96.533 22.7218C95.0385 22.7218 93.9562 22.2748 93.3121 21.3979C92.6851 20.5382 92.3673 19.1111 92.3673 17.1596V9.11279H89.9451V17.7699C89.9451 18.8188 90.0568 19.7902 90.2715 20.6499C90.4862 21.501 90.8384 22.2404 91.328 22.868C91.809 23.4869 92.4531 23.9684 93.2519 24.3122C94.0507 24.6561 95.0556 24.8281 96.2324 24.8281C97.6066 24.8281 98.8349 24.7335 99.8827 24.5616C100.853 24.3982 101.661 24.2349 102.279 24.0887V9.11279H99.857V22.3607L99.7367 22.4123C99.6165 22.4553 99.4447 22.4983 99.187 22.5327C98.9551 22.5671 98.6974 22.5928 98.414 22.6272C98.1305 22.6616 97.8213 22.6874 97.495 22.7046L97.4864 22.6874Z" fill="#002244"/>
<path d="M113.376 9.09559C113.127 9.04401 112.852 8.99243 112.552 8.94944C112.251 8.89786 111.95 8.86348 111.641 8.82909C111.341 8.8033 111.066 8.7861 110.825 8.7861C109.614 8.7861 108.506 8.88927 107.536 9.10419C106.625 9.30192 105.844 9.50825 105.208 9.73177V24.4928H107.63V11.2878L107.776 11.2534C107.939 11.2104 108.274 11.1331 108.798 11.0213C109.322 10.9096 109.863 10.8494 110.396 10.8494C111.212 10.8494 111.899 10.9096 112.423 11.0213C112.809 11.1073 113.11 11.1761 113.333 11.2448L113.737 9.18156C113.634 9.15577 113.514 9.12998 113.368 9.09559H113.376Z" fill="#002244"/>
<path d="M123.683 22.5327C123.065 22.6788 122.369 22.7476 121.605 22.7476C120.651 22.7476 119.835 22.6015 119.165 22.3264C118.495 22.0427 117.928 21.63 117.499 21.1056C117.069 20.5812 116.752 19.945 116.554 19.2143C116.357 18.4921 116.262 17.6926 116.262 16.8243C116.262 14.89 116.7 13.3855 117.568 12.3625C118.444 11.3308 119.706 10.8064 121.338 10.8064C121.974 10.8064 122.584 10.8666 123.151 10.9955C123.623 11.0987 124.061 11.2363 124.448 11.3996L124.98 9.39651C124.396 9.17299 123.786 9.00105 123.151 8.89788C122.463 8.77753 121.759 8.71735 121.063 8.71735C119.947 8.71735 118.916 8.92367 118.006 9.31913C117.095 9.72319 116.322 10.282 115.695 10.9955C115.068 11.7091 114.579 12.5688 114.235 13.5488C113.892 14.5375 113.72 15.6379 113.72 16.8157C113.72 17.9935 113.883 19.1025 114.192 20.0739C114.501 21.0454 114.982 21.8879 115.618 22.5929C116.254 23.2978 117.044 23.848 117.971 24.2435C119.2 24.7593 120.711 24.9656 122.472 24.7593C122.893 24.7077 123.305 24.6475 123.683 24.5788C124.061 24.51 124.405 24.4326 124.697 24.338C124.911 24.2693 125.092 24.2005 125.229 24.1317L124.903 22.1544C124.576 22.2834 124.164 22.4037 123.675 22.5241L123.683 22.5327Z" fill="#002244"/>
<path d="M132.478 8.71735C131.602 8.71735 130.726 8.88929 129.884 9.21597C129.051 9.55125 128.295 10.0499 127.651 10.7118C127.007 11.3738 126.483 12.2249 126.088 13.2394C125.693 14.2538 125.495 15.4574 125.495 16.8243C125.495 17.9935 125.65 19.0767 125.959 20.0568C126.26 21.0282 126.732 21.8707 127.359 22.5757C127.986 23.2806 128.785 23.8394 129.756 24.2349C130.726 24.6389 131.894 24.8453 133.243 24.8453C134.308 24.8453 135.278 24.7421 136.12 24.5444C136.859 24.3724 137.408 24.2005 137.743 24.0457L137.417 22.077C137.082 22.2146 136.644 22.3436 136.086 22.4897C135.399 22.6616 134.54 22.7562 133.535 22.7562C131.731 22.7562 130.383 22.3092 129.515 21.4237C128.656 20.5468 128.158 19.2486 128.038 17.5722L128.021 17.3573H138.834C138.834 17.2541 138.843 17.1424 138.843 17.022V16.5492C138.843 13.9013 138.285 11.9154 137.194 10.6345C136.111 9.36212 134.514 8.71735 132.47 8.71735H132.478ZM136.309 15.4746H128.081L128.106 15.251C128.167 14.6922 128.295 14.1334 128.493 13.6004C128.691 13.0588 128.974 12.5688 129.326 12.1475C129.687 11.7263 130.125 11.3738 130.64 11.1159C131.164 10.8494 131.765 10.7204 132.444 10.7204C133.655 10.7204 134.617 11.1589 135.313 12.0186C135.991 12.8697 136.326 13.9701 136.309 15.2854V15.4832V15.4746Z" fill="#002244"/>
<path d="M36.5294 21.1485C36.3834 21.2001 36.2374 21.2603 36.057 21.3291C35.5932 21.501 34.9662 21.587 34.1674 21.587C33.738 21.587 33.3515 21.5354 33.0423 21.4322C32.7588 21.3377 32.5269 21.1829 32.338 20.9508C32.1404 20.7101 31.9858 20.3662 31.8827 19.9192C31.7711 19.4377 31.7109 18.8188 31.7109 18.0708V11.2534H37.6804V7.97798H31.7109V4.48761L27.9833 5.10659V18.0966C27.9833 19.1798 28.0692 20.1427 28.2495 20.968C28.4299 21.8277 28.7649 22.567 29.2287 23.1688C29.7011 23.7792 30.3281 24.2349 31.1011 24.5444C31.8484 24.8366 32.7932 24.9828 33.9183 24.9828C34.8631 24.9828 35.7221 24.871 36.4693 24.6475C37.1478 24.4412 37.6288 24.2692 37.9466 24.1231C37.5773 23.7018 37.2595 23.2204 37.0104 22.696C36.7871 22.2232 36.6239 21.7074 36.5208 21.1571L36.5294 21.1485Z" fill="#002244"/>
<path d="M17.9426 2.98315L17.7451 3.01754C17.2555 4.49622 17.0322 5.6912 16.4997 7.23006C15.9671 8.77751 15.4346 10.2992 14.8935 11.8036C14.3524 13.3081 13.8199 14.7524 13.2873 16.1365C12.7548 17.5206 12.2481 18.8016 11.7585 19.9622C11.2517 18.8016 10.7278 17.5206 10.2039 16.1193C9.67133 14.718 9.1474 13.2737 8.61487 11.7865C8.08235 10.2906 7.55841 8.77751 7.02589 7.23006C6.57925 5.94051 5.37678 2.68226 4.69824 0.782325L0 0C1.36567 3.93741 3.81356 10.4711 5.16205 13.9271C6.63079 17.6754 8.15965 21.2603 9.74863 24.6905H13.588C15.1769 21.2603 16.7058 17.6754 18.1745 13.9271C19.4629 10.6345 20.6826 7.00653 21.8421 3.62792L17.9426 2.98315Z" fill="#002244"/>
<path d="M53.1236 0.937067V24.6475H56.8427V0.318085L53.1236 0.937067Z" fill="#002244"/>
<path d="M71.8822 16.6953C71.5558 16.0162 71.1092 15.4316 70.5509 14.9587C70.0012 14.4945 69.3484 14.0818 68.6184 13.738C67.8969 13.4027 67.1153 13.0588 66.2993 12.7235C65.6208 12.4484 64.9938 12.1733 64.4269 11.924C63.8686 11.6747 63.3704 11.391 62.9582 11.0815C62.5545 10.7806 62.2367 10.4195 62.0133 10.0155C61.79 9.61142 61.6784 9.1042 61.6784 8.50241C61.6784 7.90062 61.79 7.41919 61.9962 7.01513C62.2109 6.61108 62.5029 6.2672 62.8723 5.99209C63.2416 5.71699 63.6968 5.51926 64.2207 5.3989C64.7533 5.26995 65.3459 5.20977 65.9815 5.20977C66.9091 5.20977 67.7852 5.33013 68.5926 5.56224C69.3914 5.79436 70.0785 6.10385 70.6368 6.49072L70.8344 6.62827L71.7019 4.565L71.573 4.47043C71.3068 4.28989 70.9632 4.10936 70.5681 3.94601C70.1816 3.79127 69.7435 3.63652 69.2626 3.50757C68.7902 3.37861 68.2748 3.26685 67.7337 3.18948C67.184 3.11211 66.6257 3.06912 66.0674 3.06912C63.9459 3.06912 62.2624 3.54196 61.06 4.47903C59.8403 5.42469 59.2305 6.8346 59.2305 8.65716C59.2305 9.45667 59.3593 10.1616 59.617 10.7634C59.8747 11.3652 60.2526 11.8982 60.7508 12.3625C61.2403 12.8181 61.833 13.2307 62.5201 13.6004C63.1986 13.9615 63.9717 14.314 64.8306 14.6492C65.5091 14.9243 66.1533 15.1909 66.7717 15.4402C67.3644 15.6809 67.9055 15.9732 68.3693 16.3085C68.8245 16.6351 69.1853 17.0478 69.4601 17.5292C69.7264 18.0021 69.8638 18.6125 69.8638 19.326C69.8638 20.5812 69.4515 21.458 68.6098 22.0169C67.7509 22.5757 66.5312 22.868 64.968 22.868C64.2895 22.868 63.6539 22.8164 63.0956 22.7218C62.5373 22.6272 62.0219 22.5069 61.5753 22.3521C61.1201 22.206 60.7336 22.0512 60.4072 21.8965C60.0636 21.7332 59.8145 21.6042 59.617 21.4924L59.4108 21.3721L58.6121 23.5041L58.7495 23.5901C58.9556 23.7105 59.2391 23.8566 59.6084 24.0199C59.9691 24.1833 60.4072 24.338 60.9397 24.4928C61.4636 24.6389 62.0649 24.7679 62.7177 24.871C63.379 24.9742 64.1177 25.0258 64.9251 25.0258C67.1754 25.0258 68.9963 24.5444 70.3276 23.5901C71.6761 22.6186 72.3632 21.1572 72.3632 19.2314C72.3632 18.2514 72.2 17.4089 71.865 16.7297L71.8822 16.6953Z" fill="#002244"/>
<path d="M143 10.6516C143 10.9697 142.948 11.262 142.845 11.5113C142.742 11.7606 142.596 11.9756 142.425 12.1475C142.244 12.3194 142.047 12.457 141.815 12.543C141.583 12.6375 141.334 12.6805 141.085 12.6805C140.836 12.6805 140.586 12.6375 140.355 12.543C140.123 12.4484 139.917 12.3194 139.745 12.1475C139.564 11.9756 139.427 11.7606 139.324 11.5113C139.221 11.262 139.169 10.9783 139.169 10.6516C139.169 10.325 139.221 10.0498 139.324 9.80054C139.427 9.55122 139.573 9.3363 139.745 9.16436C139.925 8.99242 140.123 8.85487 140.355 8.7689C140.586 8.67433 140.827 8.63135 141.085 8.63135C141.342 8.63135 141.583 8.67433 141.815 8.7689C142.047 8.86347 142.253 8.99242 142.425 9.16436C142.605 9.3363 142.742 9.55122 142.845 9.80054C142.948 10.0498 143 10.3335 143 10.6516ZM142.51 10.6516C142.51 10.4195 142.476 10.2046 142.407 10.0155C142.339 9.82633 142.236 9.65439 142.107 9.51684C141.978 9.37928 141.823 9.27612 141.652 9.19875C141.48 9.12138 141.282 9.08699 141.067 9.08699C140.853 9.08699 140.664 9.12138 140.483 9.19875C140.312 9.27612 140.157 9.37928 140.028 9.51684C139.899 9.65439 139.805 9.81773 139.736 10.0155C139.667 10.2046 139.633 10.4195 139.633 10.6516C139.633 10.8838 139.667 11.0987 139.736 11.2964C139.805 11.4941 139.908 11.6575 140.028 11.795C140.157 11.9326 140.303 12.0357 140.483 12.1131C140.655 12.1905 140.853 12.2249 141.067 12.2249C141.282 12.2249 141.471 12.1905 141.652 12.1131C141.823 12.0357 141.978 11.9326 142.107 11.795C142.236 11.6575 142.33 11.4941 142.407 11.2964C142.476 11.0987 142.51 10.8924 142.51 10.6516ZM141.514 11.6833C141.437 11.5285 141.368 11.3824 141.291 11.2534C141.213 11.1245 141.145 11.0213 141.076 10.9353H140.775V11.6833H140.303V9.64579C140.415 9.62 140.535 9.59421 140.647 9.58561C140.758 9.57701 140.853 9.56842 140.939 9.56842C141.248 9.56842 141.48 9.6286 141.643 9.74036C141.798 9.85212 141.883 10.0327 141.883 10.2648C141.883 10.3937 141.849 10.5055 141.789 10.6001C141.729 10.6946 141.643 10.772 141.523 10.8236C141.6 10.9353 141.677 11.0557 141.763 11.2018C141.849 11.348 141.935 11.5113 142.012 11.6919H141.505L141.514 11.6833ZM140.775 10.5571H140.93C141.076 10.5571 141.188 10.5399 141.274 10.4969C141.359 10.4625 141.402 10.3765 141.402 10.2562C141.402 10.153 141.359 10.0756 141.282 10.0327C141.205 9.98967 141.102 9.96388 140.982 9.96388H140.887C140.887 9.96388 140.818 9.96388 140.775 9.97248V10.5399V10.5571Z" fill="#002244"/>
</g>
<defs>
<clipPath id="clip0_118_137">
<rect width="143" height="25" fill="white"/>
</clipPath>
</defs>
</svg>
